<?xml version="1.0" encoding="utf-8"?>
<!-- Generator: Adobe Illustrator 21.0.0, SVG Export Plug-In . SVG Version: 6.00 Build 0)  -->
<svg version="1.1" id="main" xmlns="http://www.w3.org/2000/svg" xmlns:xlink="http://www.w3.org/1999/xlink" x="100px" y="100px"
	 viewBox="0 0 800 600" style="enable-background:new 0 0 800 600;" xml:space="preserve">
	<defs>
<style type="text/css">
	.st0{fill:none;stroke:#000000;stroke-width:4;stroke-miterlimit:10;}
	.st1{fill:none;stroke:#000000;stroke-width:3;stroke-miterlimit:10;}

	@keyframes flyes{
		0%{
			transform: translate(50px,-50px)
		}
		100%{
			transform: translate(1000px,-1100px)
		}
	}
	#main.animate #arrow{
		animation: flyes 2s ease-out 1;
	}
</style>
	<script type="text/javascript">
		window.onload = function(){
			var main = document.getElementById('main');

			var arrow = document.getElementById('arrow');
			main.addEventListener('click', function(){
				this.classList.toggle('animate');
				setTimeout(function(){
					main.classList.remove('animate');
				},500)
			});

		}
	</script>
</defs>
<path id="bow" class="st0" d="M528.5,284.5c0,38.7-18.7,73.5-48.5,97.8L281.8,184.1c26.1-20,60.2-32.1,97.4-32.1
	C461.7,152,528.5,211.3,528.5,284.5z"/>
<g id="arrow">
	<line id="palka" class="st1" x1="342.8" y1="318.6" x2="519.9" y2="157"/>
	<line id="line2" class="st1" x1="519.9" y1="157" x2="519.9" y2="177"/>
	<line id="line1" class="st1" x1="518.9" y1="158" x2="498.9" y2="158"/>
	<g id="pero5">
		<line class="st1" x1="317" y1="317" x2="342.8" y2="318.6"/>
		<line class="st1" x1="345" y1="344" x2="342.8" y2="318.6"/>
	</g>
	<g id="pero4">
		<line class="st1" x1="315" y1="320" x2="340.8" y2="321.6"/>
		<line class="st1" x1="343" y1="347" x2="340.8" y2="321.6"/>
	</g>
	<g id="pero3">
		<line class="st1" x1="313" y1="322" x2="338.8" y2="323.6"/>
		<line class="st1" x1="341" y1="349" x2="338.8" y2="323.6"/>
	</g>
	<g id="pero2">
		<line class="st1" x1="310" y1="324" x2="335.8" y2="325.6"/>
		<line class="st1" x1="338" y1="351" x2="335.8" y2="325.6"/>
	</g>
	<g id="pero1">
		<line class="st1" x1="308" y1="327" x2="333.8" y2="328.6"/>
		<line class="st1" x1="336" y1="354" x2="333.8" y2="328.6"/>
	</g>
</g>
</svg>

