<?xml version="1.0" encoding="utf-8"?>
<!-- Generator: Adobe Illustrator 21.0.0, SVG Export Plug-In . SVG Version: 6.00 Build 0)  -->
<svg version="1.1" id="main" xmlns="http://www.w3.org/2000/svg" xmlns:xlink="http://www.w3.org/1999/xlink" x="0px" y="0px"
	 viewBox="0 0 256 242" style="enable-background:new 0 0 256 242;" xml:space="preserve">
	<defs>
<style type="text/css">
	.st0{fill:none;stroke:#000000;stroke-width:4;stroke-miterlimit:10;}
	.st1{fill:none;stroke:#000000;stroke-width:3;stroke-miterlimit:10;}
	@keyframes flyes{
		0%{
			transform: translate(50px,-50px)
		}
		100%{
			transform: translate(1000px,-1100px)
		}
	}
	#main.animate #arrow{
		animation: flyes 2s ease-out 1;
	}
</style>
		<script type="text/javascript">
		window.onload = function(){
			var main = document.getElementById('main');

			var arrow = document.getElementById('arrow');
			main.addEventListener('click', function(){
				this.classList.toggle('animate');
				setTimeout(function(){
					main.classList.remove('animate');
				},500)
			});

		}
	</script>
	</defs>
<path id="bow" class="st0" d="M251.5,138.5c0,38.7-18.7,73.5-48.5,97.8L4.8,38.1C31,18.1,65,6,102.3,6
	C184.7,6,251.5,65.3,251.5,138.5z"/>
<g id="arrow">
	<line id="palka" class="st1" x1="65.8" y1="172.6" x2="242.9" y2="11"/>
	<line id="line2" class="st1" x1="242.9" y1="11" x2="242.9" y2="31"/>
	<line id="line1" class="st1" x1="241.9" y1="12" x2="221.9" y2="12"/>
	<g id="pero5">
		<line class="st1" x1="40" y1="171" x2="65.8" y2="172.6"/>
		<line class="st1" x1="68" y1="198" x2="65.8" y2="172.6"/>
	</g>
	<g id="pero4">
		<line class="st1" x1="38" y1="174" x2="63.8" y2="175.6"/>
		<line class="st1" x1="66" y1="201" x2="63.8" y2="175.6"/>
	</g>
	<g id="pero3">
		<line class="st1" x1="36" y1="176" x2="61.8" y2="177.6"/>
		<line class="st1" x1="64" y1="203" x2="61.8" y2="177.6"/>
	</g>
	<g id="pero2">
		<line class="st1" x1="33" y1="178" x2="58.8" y2="179.6"/>
		<line class="st1" x1="61" y1="205" x2="58.8" y2="179.6"/>
	</g>
	<g id="pero1">
		<line class="st1" x1="31" y1="181" x2="56.8" y2="182.6"/>
		<line class="st1" x1="59" y1="208" x2="56.8" y2="182.6"/>
	</g>
</g>
</svg>
