<?xml version="1.0" encoding="utf-8"?>
<!-- Generator: Adobe Illustrator 21.0.0, SVG Export Plug-In . SVG Version: 6.00 Build 0)  -->
<svg version="1.1" id="main" xmlns="http://www.w3.org/2000/svg" xmlns:xlink="http://www.w3.org/1999/xlink" x="0px" y="0px"
	 viewBox="0 0 313 289" style="enable-background:new 0 0 313 289;" xml:space="preserve">
<style type="text/css">
	.st0{fill:none;stroke:#000000;stroke-width:4;stroke-miterlimit:10;}
	.st1{fill:none;stroke:#000000;stroke-width:3;stroke-miterlimit:10;}

	#main.animate #arrow{
		animation-name: flyes;
		animation-duration: 1s;
		animation-timing-function: cubic-bezier(.60, 0, .52, 1);
		animation-fill-mode: forwards;
	}

	@keyframes flyes{
		0%{
			transform: translate(0,0);
		}
		50%{
			transform: translate(-60px,60px);
		}
		90%{
			transform: translate(300px,-300px);
		}
		100%{
			transform: translate(300px,-300px);
		}
	}
</style>
<defs>
	
	<script  type="text/javascript">window.onload = function(){
			var main = document.getElementById(&apos;main&apos;);

			var arrow = document.getElementById(&apos;arrow&apos;);

			main.addEventListener(&apos;click&apos;, function(){
				this.classList.add(&apos;animate&apos;);
			});

			main.addEventListener("mouseleave", function(){
				setTimeout(function(){
					main.classList.remove('animate');
				},1000);
			})
		}
		</script>
</defs>
<g id="arrow">
	<line id="palka" class="st0" x1="119.2" y1="177.7" x2="296.3" y2="16.1"/>
	<line id="line2" class="st0" x1="296.3" y1="16.1" x2="296.3" y2="36.1"/>
	<line id="line1" class="st0" x1="295.3" y1="17.1" x2="275.3" y2="17.1"/>
	<g id="pero5">
		<line class="st0" x1="93.4" y1="176.1" x2="119.2" y2="177.7"/>
		<line class="st0" x1="121.4" y1="203.1" x2="119.2" y2="177.7"/>
	</g>
	<g id="pero4">
		<line class="st0" x1="91.4" y1="179.1" x2="117.2" y2="180.7"/>
		<line class="st0" x1="119.4" y1="206.1" x2="117.2" y2="180.7"/>
	</g>
	<g id="pero3">
		<line class="st0" x1="89.4" y1="181.1" x2="115.2" y2="182.7"/>
		<line class="st0" x1="117.4" y1="208.1" x2="115.2" y2="182.7"/>
	</g>
	<g id="pero2">
		<line class="st0" x1="86.4" y1="183.1" x2="112.2" y2="184.7"/>
		<line class="st0" x1="114.4" y1="210.1" x2="112.2" y2="184.7"/>
	</g>
	<g id="pero1">
		<line class="st0" x1="84.4" y1="186.1" x2="110.2" y2="187.7"/>
		<line class="st0" x1="112.4" y1="213.1" x2="110.2" y2="187.7"/>
	</g>
</g>
<path id="duga" class="st1" d="M4,84.8c0,0,109.3-77.5,205.7,9.2s-0.4,196.1-7.5,189"/>
<line id="tetiva" class="st0" x1="4" y1="84.8" x2="202.2" y2="283"/>
</svg>
